<mxfile host="app.diagrams.net" modified="2023-04-23T18:44:01.970Z" agent="Mozilla/5.0 (Windows NT 10.0; Win64; x64) AppleWebKit/537.36 (KHTML, like Gecko) Chrome/112.0.0.0 Safari/537.36 Edg/112.0.1722.58" etag="kj8XNrdykdq9-_o2l_bw" version="21.2.1" type="github">
  <diagram id="prtHgNgQTEPvFCAcTncT" name="Page-1">
    <mxGraphModel dx="2821" dy="646" grid="1" gridSize="10" guides="1" tooltips="1" connect="1" arrows="1" fold="1" page="1" pageScale="1" pageWidth="827" pageHeight="1169" math="0" shadow="0">
      <root>
        <mxCell id="0" />
        <mxCell id="1" parent="0" />
        <mxCell id="hEL3vepF8iHlLcLONmED-76" value="TesorerÃ­a" style="swimlane;whiteSpace=wrap;html=1;" vertex="1" parent="1">
          <mxGeometry x="-560" y="130" width="640" height="2270" as="geometry" />
        </mxCell>
        <mxCell id="hEL3vepF8iHlLcLONmED-132" value="" style="shape=document;whiteSpace=wrap;html=1;boundedLbl=1;" vertex="1" parent="hEL3vepF8iHlLcLONmED-76">
          <mxGeometry x="40" y="1720" width="120" height="80" as="geometry" />
        </mxCell>
        <mxCell id="hEL3vepF8iHlLcLONmED-133" value="" style="shape=document;whiteSpace=wrap;html=1;boundedLbl=1;" vertex="1" parent="hEL3vepF8iHlLcLONmED-76">
          <mxGeometry x="60" y="1260" width="120" height="80" as="geometry" />
        </mxCell>
        <mxCell id="hEL3vepF8iHlLcLONmED-134" value="" style="shape=document;whiteSpace=wrap;html=1;boundedLbl=1;" vertex="1" parent="hEL3vepF8iHlLcLONmED-76">
          <mxGeometry x="40" y="1270" width="120" height="80" as="geometry" />
        </mxCell>
        <mxCell id="hEL3vepF8iHlLcLONmED-135" value="" style="shape=document;whiteSpace=wrap;html=1;boundedLbl=1;" vertex="1" parent="hEL3vepF8iHlLcLONmED-76">
          <mxGeometry x="50" y="840" width="120" height="80" as="geometry" />
        </mxCell>
        <mxCell id="hEL3vepF8iHlLcLONmED-142" value="" style="endArrow=classic;html=1;rounded=0;exitX=0.59;exitY=0.814;exitDx=0;exitDy=0;exitPerimeter=0;" edge="1" parent="hEL3vepF8iHlLcLONmED-76" target="hEL3vepF8iHlLcLONmED-143" source="hEL3vepF8iHlLcLONmED-134">
          <mxGeometry width="50" height="50" relative="1" as="geometry">
            <mxPoint x="180" y="1282.5" as="sourcePoint" />
            <mxPoint x="200" y="1312.5" as="targetPoint" />
          </mxGeometry>
        </mxCell>
        <mxCell id="hEL3vepF8iHlLcLONmED-143" value="" style="whiteSpace=wrap;html=1;aspect=fixed;" vertex="1" parent="hEL3vepF8iHlLcLONmED-76">
          <mxGeometry x="67" y="1390" width="80" height="80" as="geometry" />
        </mxCell>
        <mxCell id="hEL3vepF8iHlLcLONmED-144" value="" style="triangle;whiteSpace=wrap;html=1;rotation=-90;" vertex="1" parent="hEL3vepF8iHlLcLONmED-76">
          <mxGeometry x="70" y="1529" width="80" height="95" as="geometry" />
        </mxCell>
        <mxCell id="hEL3vepF8iHlLcLONmED-145" value="" style="endArrow=classic;html=1;rounded=0;exitX=0.5;exitY=1;exitDx=0;exitDy=0;entryX=1;entryY=0.5;entryDx=0;entryDy=0;" edge="1" parent="hEL3vepF8iHlLcLONmED-76" source="hEL3vepF8iHlLcLONmED-143" target="hEL3vepF8iHlLcLONmED-144">
          <mxGeometry width="50" height="50" relative="1" as="geometry">
            <mxPoint x="150" y="1362.5" as="sourcePoint" />
            <mxPoint x="420" y="1285.5" as="targetPoint" />
          </mxGeometry>
        </mxCell>
        <mxCell id="hEL3vepF8iHlLcLONmED-150" value="" style="whiteSpace=wrap;html=1;aspect=fixed;" vertex="1" parent="hEL3vepF8iHlLcLONmED-76">
          <mxGeometry x="60" y="1850" width="80" height="80" as="geometry" />
        </mxCell>
        <mxCell id="hEL3vepF8iHlLcLONmED-151" value="" style="endArrow=classic;html=1;rounded=0;exitX=0.5;exitY=1;exitDx=0;exitDy=0;" edge="1" parent="hEL3vepF8iHlLcLONmED-76" source="hEL3vepF8iHlLcLONmED-150">
          <mxGeometry width="50" height="50" relative="1" as="geometry">
            <mxPoint x="330" y="1530" as="sourcePoint" />
            <mxPoint x="100" y="2010" as="targetPoint" />
            <Array as="points">
              <mxPoint x="100" y="1980" />
            </Array>
          </mxGeometry>
        </mxCell>
        <mxCell id="hEL3vepF8iHlLcLONmED-138" value="" style="triangle;whiteSpace=wrap;html=1;rotation=-90;" vertex="1" parent="hEL3vepF8iHlLcLONmED-76">
          <mxGeometry x="60" y="1150" width="80" height="95" as="geometry" />
        </mxCell>
        <mxCell id="hEL3vepF8iHlLcLONmED-172" value="" style="endArrow=classic;html=1;rounded=0;exitX=0.504;exitY=0.879;exitDx=0;exitDy=0;exitPerimeter=0;" edge="1" parent="hEL3vepF8iHlLcLONmED-76" source="hEL3vepF8iHlLcLONmED-132" target="hEL3vepF8iHlLcLONmED-150">
          <mxGeometry width="50" height="50" relative="1" as="geometry">
            <mxPoint x="150" y="1820" as="sourcePoint" />
            <mxPoint x="200" y="1770" as="targetPoint" />
          </mxGeometry>
        </mxCell>
        <mxCell id="hEL3vepF8iHlLcLONmED-152" value="" style="shape=document;whiteSpace=wrap;html=1;boundedLbl=1;" vertex="1" parent="hEL3vepF8iHlLcLONmED-76">
          <mxGeometry x="35" y="2010" width="120" height="80" as="geometry" />
        </mxCell>
        <mxCell id="hEL3vepF8iHlLcLONmED-153" value="" style="shape=document;whiteSpace=wrap;html=1;boundedLbl=1;" vertex="1" parent="hEL3vepF8iHlLcLONmED-76">
          <mxGeometry x="45" y="2020" width="120" height="80" as="geometry" />
        </mxCell>
        <mxCell id="hEL3vepF8iHlLcLONmED-72" value="Contabilidad" style="swimlane;whiteSpace=wrap;html=1;" vertex="1" parent="1">
          <mxGeometry x="-1520" y="130" width="320" height="2270" as="geometry" />
        </mxCell>
        <mxCell id="hEL3vepF8iHlLcLONmED-79" value="" style="ellipse;whiteSpace=wrap;html=1;aspect=fixed;" vertex="1" parent="hEL3vepF8iHlLcLONmED-72">
          <mxGeometry x="120" y="40" width="80" height="80" as="geometry" />
        </mxCell>
        <mxCell id="hEL3vepF8iHlLcLONmED-81" value="" style="rhombus;whiteSpace=wrap;html=1;" vertex="1" parent="hEL3vepF8iHlLcLONmED-72">
          <mxGeometry x="115" y="310" width="90" height="100" as="geometry" />
        </mxCell>
        <mxCell id="hEL3vepF8iHlLcLONmED-82" value="" style="triangle;whiteSpace=wrap;html=1;rotation=-90;" vertex="1" parent="hEL3vepF8iHlLcLONmED-72">
          <mxGeometry x="130" y="430" width="60" height="80" as="geometry" />
        </mxCell>
        <mxCell id="hEL3vepF8iHlLcLONmED-89" value="" style="shape=document;whiteSpace=wrap;html=1;boundedLbl=1;size=0.2857142857142857;" vertex="1" parent="hEL3vepF8iHlLcLONmED-72">
          <mxGeometry x="110" y="570" width="110" height="70" as="geometry" />
        </mxCell>
        <mxCell id="hEL3vepF8iHlLcLONmED-96" value="" style="endArrow=classic;html=1;rounded=0;exitX=0.5;exitY=1;exitDx=0;exitDy=0;entryX=0.5;entryY=0;entryDx=0;entryDy=0;" edge="1" parent="hEL3vepF8iHlLcLONmED-72" source="hEL3vepF8iHlLcLONmED-79" target="hEL3vepF8iHlLcLONmED-83">
          <mxGeometry width="50" height="50" relative="1" as="geometry">
            <mxPoint x="480" y="320" as="sourcePoint" />
            <mxPoint x="530" y="270" as="targetPoint" />
          </mxGeometry>
        </mxCell>
        <mxCell id="hEL3vepF8iHlLcLONmED-97" value="" style="endArrow=classic;html=1;rounded=0;entryX=0.5;entryY=0;entryDx=0;entryDy=0;" edge="1" parent="hEL3vepF8iHlLcLONmED-72" target="hEL3vepF8iHlLcLONmED-84">
          <mxGeometry width="50" height="50" relative="1" as="geometry">
            <mxPoint x="160" y="130" as="sourcePoint" />
            <mxPoint x="280" y="230" as="targetPoint" />
          </mxGeometry>
        </mxCell>
        <mxCell id="hEL3vepF8iHlLcLONmED-83" value="" style="shape=document;whiteSpace=wrap;html=1;boundedLbl=1;" vertex="1" parent="hEL3vepF8iHlLcLONmED-72">
          <mxGeometry x="105" y="140" width="110" height="70" as="geometry" />
        </mxCell>
        <mxCell id="hEL3vepF8iHlLcLONmED-99" value="" style="endArrow=classic;html=1;rounded=0;exitX=0.5;exitY=0;exitDx=0;exitDy=0;entryX=0.5;entryY=0;entryDx=0;entryDy=0;" edge="1" parent="hEL3vepF8iHlLcLONmED-72" source="hEL3vepF8iHlLcLONmED-84" target="hEL3vepF8iHlLcLONmED-81">
          <mxGeometry width="50" height="50" relative="1" as="geometry">
            <mxPoint x="400" y="390" as="sourcePoint" />
            <mxPoint x="450" y="340" as="targetPoint" />
          </mxGeometry>
        </mxCell>
        <mxCell id="hEL3vepF8iHlLcLONmED-84" value="" style="shape=document;whiteSpace=wrap;html=1;boundedLbl=1;size=0.2857142857142857;" vertex="1" parent="hEL3vepF8iHlLcLONmED-72">
          <mxGeometry x="105" y="230" width="110" height="70" as="geometry" />
        </mxCell>
        <mxCell id="hEL3vepF8iHlLcLONmED-101" value="" style="endArrow=classic;html=1;rounded=0;exitX=0.5;exitY=1;exitDx=0;exitDy=0;entryX=1;entryY=0.5;entryDx=0;entryDy=0;" edge="1" parent="hEL3vepF8iHlLcLONmED-72" source="hEL3vepF8iHlLcLONmED-81" target="hEL3vepF8iHlLcLONmED-82">
          <mxGeometry width="50" height="50" relative="1" as="geometry">
            <mxPoint x="400" y="530" as="sourcePoint" />
            <mxPoint x="450" y="480" as="targetPoint" />
          </mxGeometry>
        </mxCell>
        <mxCell id="hEL3vepF8iHlLcLONmED-179" value="" style="shape=document;whiteSpace=wrap;html=1;boundedLbl=1;" vertex="1" parent="hEL3vepF8iHlLcLONmED-72">
          <mxGeometry x="110.00000000000023" y="2010" width="120" height="80" as="geometry" />
        </mxCell>
        <mxCell id="hEL3vepF8iHlLcLONmED-181" value="" style="triangle;whiteSpace=wrap;html=1;rotation=-90;" vertex="1" parent="hEL3vepF8iHlLcLONmED-72">
          <mxGeometry x="120" y="2130" width="80" height="95" as="geometry" />
        </mxCell>
        <mxCell id="hEL3vepF8iHlLcLONmED-180" value="" style="endArrow=classic;html=1;rounded=0;exitX=0.442;exitY=0.943;exitDx=0;exitDy=0;exitPerimeter=0;entryX=1;entryY=0.5;entryDx=0;entryDy=0;" edge="1" parent="hEL3vepF8iHlLcLONmED-72" source="hEL3vepF8iHlLcLONmED-179" target="hEL3vepF8iHlLcLONmED-181">
          <mxGeometry width="50" height="50" relative="1" as="geometry">
            <mxPoint x="390" y="2080" as="sourcePoint" />
            <mxPoint x="163" y="2120" as="targetPoint" />
          </mxGeometry>
        </mxCell>
        <mxCell id="hEL3vepF8iHlLcLONmED-74" value="Clientes" style="swimlane;whiteSpace=wrap;html=1;" vertex="1" parent="1">
          <mxGeometry x="-1200" y="130" width="320" height="2270" as="geometry" />
        </mxCell>
        <mxCell id="hEL3vepF8iHlLcLONmED-103" value="" style="shape=document;whiteSpace=wrap;html=1;boundedLbl=1;" vertex="1" parent="hEL3vepF8iHlLcLONmED-74">
          <mxGeometry x="100" y="465" width="120" height="80" as="geometry" />
        </mxCell>
        <mxCell id="hEL3vepF8iHlLcLONmED-107" value="" style="ellipse;whiteSpace=wrap;html=1;aspect=fixed;" vertex="1" parent="hEL3vepF8iHlLcLONmED-74">
          <mxGeometry x="112.5" y="710" width="95" height="95" as="geometry" />
        </mxCell>
        <mxCell id="hEL3vepF8iHlLcLONmED-109" value="" style="shape=document;whiteSpace=wrap;html=1;boundedLbl=1;" vertex="1" parent="hEL3vepF8iHlLcLONmED-74">
          <mxGeometry x="100" y="840" width="120" height="80" as="geometry" />
        </mxCell>
        <mxCell id="hEL3vepF8iHlLcLONmED-108" value="" style="endArrow=classic;html=1;rounded=0;exitX=0.5;exitY=1;exitDx=0;exitDy=0;" edge="1" parent="hEL3vepF8iHlLcLONmED-74" source="hEL3vepF8iHlLcLONmED-107" target="hEL3vepF8iHlLcLONmED-109">
          <mxGeometry width="50" height="50" relative="1" as="geometry">
            <mxPoint x="160" y="860" as="sourcePoint" />
            <mxPoint x="160" y="860" as="targetPoint" />
          </mxGeometry>
        </mxCell>
        <mxCell id="hEL3vepF8iHlLcLONmED-119" value="" style="shape=document;whiteSpace=wrap;html=1;boundedLbl=1;" vertex="1" parent="hEL3vepF8iHlLcLONmED-74">
          <mxGeometry x="112.5" y="1300" width="120" height="80" as="geometry" />
        </mxCell>
        <mxCell id="hEL3vepF8iHlLcLONmED-136" value="" style="endArrow=classic;html=1;rounded=0;exitX=1;exitY=0.25;exitDx=0;exitDy=0;" edge="1" parent="hEL3vepF8iHlLcLONmED-74">
          <mxGeometry width="50" height="50" relative="1" as="geometry">
            <mxPoint x="740" y="922.5" as="sourcePoint" />
            <mxPoint x="740" y="1000" as="targetPoint" />
          </mxGeometry>
        </mxCell>
        <mxCell id="hEL3vepF8iHlLcLONmED-130" value="" style="whiteSpace=wrap;html=1;aspect=fixed;" vertex="1" parent="hEL3vepF8iHlLcLONmED-74">
          <mxGeometry x="720" y="1000" width="80" height="80" as="geometry" />
        </mxCell>
        <mxCell id="hEL3vepF8iHlLcLONmED-137" value="" style="endArrow=classic;html=1;rounded=0;exitX=0.25;exitY=1;exitDx=0;exitDy=0;" edge="1" parent="hEL3vepF8iHlLcLONmED-74" source="hEL3vepF8iHlLcLONmED-130">
          <mxGeometry width="50" height="50" relative="1" as="geometry">
            <mxPoint x="710" y="1002.5" as="sourcePoint" />
            <mxPoint x="740" y="1160" as="targetPoint" />
            <Array as="points">
              <mxPoint x="740" y="1120" />
            </Array>
          </mxGeometry>
        </mxCell>
        <mxCell id="hEL3vepF8iHlLcLONmED-75" value="Cobrador" style="swimlane;whiteSpace=wrap;html=1;" vertex="1" parent="1">
          <mxGeometry x="-880" y="130" width="320" height="2270" as="geometry" />
        </mxCell>
        <mxCell id="hEL3vepF8iHlLcLONmED-86" value="" style="shape=document;whiteSpace=wrap;html=1;boundedLbl=1;size=0.2857142857142857;" vertex="1" parent="hEL3vepF8iHlLcLONmED-75">
          <mxGeometry x="130" y="320" width="110" height="70" as="geometry" />
        </mxCell>
        <mxCell id="hEL3vepF8iHlLcLONmED-90" value="" style="ellipse;whiteSpace=wrap;html=1;aspect=fixed;" vertex="1" parent="hEL3vepF8iHlLcLONmED-75">
          <mxGeometry x="180" y="450" width="95" height="95" as="geometry" />
        </mxCell>
        <mxCell id="hEL3vepF8iHlLcLONmED-92" value="" style="endArrow=classic;html=1;rounded=0;exitX=1;exitY=0.75;exitDx=0;exitDy=0;" edge="1" parent="hEL3vepF8iHlLcLONmED-75" source="hEL3vepF8iHlLcLONmED-86">
          <mxGeometry width="50" height="50" relative="1" as="geometry">
            <mxPoint x="-160" y="530" as="sourcePoint" />
            <mxPoint x="240" y="450" as="targetPoint" />
          </mxGeometry>
        </mxCell>
        <mxCell id="hEL3vepF8iHlLcLONmED-111" value="" style="ellipse;whiteSpace=wrap;html=1;aspect=fixed;" vertex="1" parent="hEL3vepF8iHlLcLONmED-75">
          <mxGeometry x="80" y="940" width="130" height="130" as="geometry" />
        </mxCell>
        <mxCell id="hEL3vepF8iHlLcLONmED-113" value="" style="shape=document;whiteSpace=wrap;html=1;boundedLbl=1;" vertex="1" parent="hEL3vepF8iHlLcLONmED-75">
          <mxGeometry x="80" y="830" width="120" height="80" as="geometry" />
        </mxCell>
        <mxCell id="hEL3vepF8iHlLcLONmED-114" value="" style="endArrow=classic;html=1;rounded=0;entryX=0.5;entryY=0;entryDx=0;entryDy=0;exitX=0.561;exitY=0.782;exitDx=0;exitDy=0;exitPerimeter=0;" edge="1" parent="hEL3vepF8iHlLcLONmED-75" source="hEL3vepF8iHlLcLONmED-113" target="hEL3vepF8iHlLcLONmED-111">
          <mxGeometry width="50" height="50" relative="1" as="geometry">
            <mxPoint x="20" y="1120" as="sourcePoint" />
            <mxPoint x="70" y="1070" as="targetPoint" />
          </mxGeometry>
        </mxCell>
        <mxCell id="hEL3vepF8iHlLcLONmED-115" value="" style="shape=document;whiteSpace=wrap;html=1;boundedLbl=1;" vertex="1" parent="hEL3vepF8iHlLcLONmED-75">
          <mxGeometry x="90" y="1270" width="120" height="80" as="geometry" />
        </mxCell>
        <mxCell id="hEL3vepF8iHlLcLONmED-116" value="" style="shape=document;whiteSpace=wrap;html=1;boundedLbl=1;" vertex="1" parent="hEL3vepF8iHlLcLONmED-75">
          <mxGeometry x="80" y="1280" width="120" height="80" as="geometry" />
        </mxCell>
        <mxCell id="hEL3vepF8iHlLcLONmED-117" value="" style="shape=document;whiteSpace=wrap;html=1;boundedLbl=1;" vertex="1" parent="hEL3vepF8iHlLcLONmED-75">
          <mxGeometry x="70" y="1290" width="120" height="80" as="geometry" />
        </mxCell>
        <mxCell id="hEL3vepF8iHlLcLONmED-85" value="" style="shape=document;whiteSpace=wrap;html=1;boundedLbl=1;size=0.2857142857142857;" vertex="1" parent="hEL3vepF8iHlLcLONmED-75">
          <mxGeometry x="120" y="330" width="110" height="70" as="geometry" />
        </mxCell>
        <mxCell id="hEL3vepF8iHlLcLONmED-124" value="" style="shape=document;whiteSpace=wrap;html=1;boundedLbl=1;" vertex="1" parent="hEL3vepF8iHlLcLONmED-75">
          <mxGeometry x="70" y="1720" width="120" height="80" as="geometry" />
        </mxCell>
        <mxCell id="hEL3vepF8iHlLcLONmED-131" value="" style="endArrow=none;html=1;rounded=0;exitX=0.993;exitY=0.022;exitDx=0;exitDy=0;exitPerimeter=0;entryX=0.998;entryY=0.015;entryDx=0;entryDy=0;entryPerimeter=0;" edge="1" parent="hEL3vepF8iHlLcLONmED-75" source="hEL3vepF8iHlLcLONmED-116" target="hEL3vepF8iHlLcLONmED-115">
          <mxGeometry width="50" height="50" relative="1" as="geometry">
            <mxPoint x="310" y="1340" as="sourcePoint" />
            <mxPoint x="360" y="1290" as="targetPoint" />
          </mxGeometry>
        </mxCell>
        <mxCell id="hEL3vepF8iHlLcLONmED-170" value="" style="endArrow=classic;html=1;rounded=0;entryX=0.5;entryY=0;entryDx=0;entryDy=0;exitX=0.592;exitY=0.776;exitDx=0;exitDy=0;exitPerimeter=0;" edge="1" parent="hEL3vepF8iHlLcLONmED-75" source="hEL3vepF8iHlLcLONmED-117" target="hEL3vepF8iHlLcLONmED-124">
          <mxGeometry width="50" height="50" relative="1" as="geometry">
            <mxPoint x="135" y="1475" as="sourcePoint" />
            <mxPoint x="185" y="1425" as="targetPoint" />
          </mxGeometry>
        </mxCell>
        <mxCell id="hEL3vepF8iHlLcLONmED-174" value="" style="shape=document;whiteSpace=wrap;html=1;boundedLbl=1;" vertex="1" parent="hEL3vepF8iHlLcLONmED-75">
          <mxGeometry x="100" y="2010" width="120" height="80" as="geometry" />
        </mxCell>
        <mxCell id="hEL3vepF8iHlLcLONmED-175" value="" style="shape=document;whiteSpace=wrap;html=1;boundedLbl=1;" vertex="1" parent="hEL3vepF8iHlLcLONmED-75">
          <mxGeometry x="110" y="2020" width="120" height="80" as="geometry" />
        </mxCell>
        <mxCell id="hEL3vepF8iHlLcLONmED-177" value="" style="triangle;whiteSpace=wrap;html=1;rotation=-90;" vertex="1" parent="hEL3vepF8iHlLcLONmED-75">
          <mxGeometry x="60" y="2130" width="80" height="95" as="geometry" />
        </mxCell>
        <mxCell id="hEL3vepF8iHlLcLONmED-176" value="" style="endArrow=classic;html=1;rounded=0;exitX=0.016;exitY=0.932;exitDx=0;exitDy=0;exitPerimeter=0;entryX=1;entryY=0.5;entryDx=0;entryDy=0;" edge="1" parent="hEL3vepF8iHlLcLONmED-75" source="hEL3vepF8iHlLcLONmED-174" target="hEL3vepF8iHlLcLONmED-177">
          <mxGeometry width="50" height="50" relative="1" as="geometry">
            <mxPoint x="280" y="2190" as="sourcePoint" />
            <mxPoint x="102" y="2130" as="targetPoint" />
            <Array as="points" />
          </mxGeometry>
        </mxCell>
        <mxCell id="hEL3vepF8iHlLcLONmED-94" value="" style="endArrow=none;html=1;rounded=0;entryX=0.621;entryY=1.015;entryDx=0;entryDy=0;entryPerimeter=0;" edge="1" parent="1" target="hEL3vepF8iHlLcLONmED-90">
          <mxGeometry width="50" height="50" relative="1" as="geometry">
            <mxPoint x="-641" y="760" as="sourcePoint" />
            <mxPoint x="-700" y="610" as="targetPoint" />
          </mxGeometry>
        </mxCell>
        <mxCell id="hEL3vepF8iHlLcLONmED-95" value="" style="endArrow=classic;html=1;rounded=0;entryX=0.997;entryY=0.871;entryDx=0;entryDy=0;entryPerimeter=0;" edge="1" parent="1" target="hEL3vepF8iHlLcLONmED-89">
          <mxGeometry width="50" height="50" relative="1" as="geometry">
            <mxPoint x="-640" y="760" as="sourcePoint" />
            <mxPoint x="-700" y="610" as="targetPoint" />
          </mxGeometry>
        </mxCell>
        <mxCell id="hEL3vepF8iHlLcLONmED-102" value="" style="endArrow=classic;html=1;rounded=0;exitX=1;exitY=0.5;exitDx=0;exitDy=0;entryX=0.006;entryY=0.406;entryDx=0;entryDy=0;entryPerimeter=0;" edge="1" parent="1" source="hEL3vepF8iHlLcLONmED-81" target="hEL3vepF8iHlLcLONmED-85">
          <mxGeometry width="50" height="50" relative="1" as="geometry">
            <mxPoint x="-1120" y="520" as="sourcePoint" />
            <mxPoint x="-1070" y="470" as="targetPoint" />
          </mxGeometry>
        </mxCell>
        <mxCell id="hEL3vepF8iHlLcLONmED-104" value="" style="endArrow=classic;html=1;rounded=0;exitX=0;exitY=0.5;exitDx=0;exitDy=0;entryX=1.042;entryY=0.41;entryDx=0;entryDy=0;entryPerimeter=0;" edge="1" parent="1" source="hEL3vepF8iHlLcLONmED-90" target="hEL3vepF8iHlLcLONmED-103">
          <mxGeometry width="50" height="50" relative="1" as="geometry">
            <mxPoint x="-1050" y="730" as="sourcePoint" />
            <mxPoint x="-1000" y="680" as="targetPoint" />
          </mxGeometry>
        </mxCell>
        <mxCell id="hEL3vepF8iHlLcLONmED-105" value="" style="curved=1;endArrow=classic;html=1;rounded=0;exitX=0.483;exitY=0.85;exitDx=0;exitDy=0;exitPerimeter=0;" edge="1" parent="1" source="hEL3vepF8iHlLcLONmED-103">
          <mxGeometry width="50" height="50" relative="1" as="geometry">
            <mxPoint x="-1050" y="880" as="sourcePoint" />
            <mxPoint x="-1040" y="840" as="targetPoint" />
            <Array as="points">
              <mxPoint x="-1040" y="700" />
              <mxPoint x="-1040" y="730" />
              <mxPoint x="-1030" y="750" />
              <mxPoint x="-1040" y="770" />
              <mxPoint x="-1042" y="790" />
              <mxPoint x="-1040" y="820" />
            </Array>
          </mxGeometry>
        </mxCell>
        <mxCell id="hEL3vepF8iHlLcLONmED-110" value="" style="endArrow=classic;html=1;rounded=0;" edge="1" parent="1">
          <mxGeometry width="50" height="50" relative="1" as="geometry">
            <mxPoint x="-980" y="1000" as="sourcePoint" />
            <mxPoint x="-800" y="1000" as="targetPoint" />
          </mxGeometry>
        </mxCell>
        <mxCell id="hEL3vepF8iHlLcLONmED-112" value="" style="endArrow=classic;html=1;rounded=0;exitX=0.5;exitY=1;exitDx=0;exitDy=0;" edge="1" parent="1" source="hEL3vepF8iHlLcLONmED-111">
          <mxGeometry width="50" height="50" relative="1" as="geometry">
            <mxPoint x="-735" y="1479.9999999999998" as="sourcePoint" />
            <mxPoint x="-735" y="1400" as="targetPoint" />
          </mxGeometry>
        </mxCell>
        <mxCell id="hEL3vepF8iHlLcLONmED-118" value="" style="endArrow=classic;html=1;rounded=0;exitX=0;exitY=0.5;exitDx=0;exitDy=0;" edge="1" parent="1" source="hEL3vepF8iHlLcLONmED-117">
          <mxGeometry width="50" height="50" relative="1" as="geometry">
            <mxPoint x="-1070" y="1250" as="sourcePoint" />
            <mxPoint x="-970" y="1460" as="targetPoint" />
          </mxGeometry>
        </mxCell>
        <mxCell id="hEL3vepF8iHlLcLONmED-120" value="" style="endArrow=classic;html=1;rounded=0;exitX=1;exitY=0.25;exitDx=0;exitDy=0;" edge="1" parent="1" source="hEL3vepF8iHlLcLONmED-115">
          <mxGeometry width="50" height="50" relative="1" as="geometry">
            <mxPoint x="-600" y="1410" as="sourcePoint" />
            <mxPoint x="-520" y="1420" as="targetPoint" />
            <Array as="points">
              <mxPoint x="-640" y="1420" />
            </Array>
          </mxGeometry>
        </mxCell>
        <mxCell id="hEL3vepF8iHlLcLONmED-126" value="" style="endArrow=classic;html=1;rounded=0;exitX=1.019;exitY=0.409;exitDx=0;exitDy=0;exitPerimeter=0;entryX=0;entryY=0.5;entryDx=0;entryDy=0;" edge="1" parent="1" source="hEL3vepF8iHlLcLONmED-124" target="hEL3vepF8iHlLcLONmED-132">
          <mxGeometry width="50" height="50" relative="1" as="geometry">
            <mxPoint x="-570" y="1740" as="sourcePoint" />
            <mxPoint x="-520" y="1680" as="targetPoint" />
          </mxGeometry>
        </mxCell>
        <mxCell id="hEL3vepF8iHlLcLONmED-127" value="" style="endArrow=classic;html=1;rounded=0;exitX=1;exitY=0.5;exitDx=0;exitDy=0;" edge="1" parent="1" source="hEL3vepF8iHlLcLONmED-113">
          <mxGeometry width="50" height="50" relative="1" as="geometry">
            <mxPoint x="-570" y="1160" as="sourcePoint" />
            <mxPoint x="-510" y="1000" as="targetPoint" />
          </mxGeometry>
        </mxCell>
        <mxCell id="hEL3vepF8iHlLcLONmED-173" value="" style="endArrow=classic;html=1;rounded=0;" edge="1" parent="1">
          <mxGeometry width="50" height="50" relative="1" as="geometry">
            <mxPoint x="-530" y="2170" as="sourcePoint" />
            <mxPoint x="-650" y="2170" as="targetPoint" />
          </mxGeometry>
        </mxCell>
        <mxCell id="hEL3vepF8iHlLcLONmED-178" value="" style="endArrow=classic;html=1;rounded=0;" edge="1" parent="1" source="hEL3vepF8iHlLcLONmED-175" target="hEL3vepF8iHlLcLONmED-179">
          <mxGeometry width="50" height="50" relative="1" as="geometry">
            <mxPoint x="-790" y="2170" as="sourcePoint" />
            <mxPoint x="-1290" y="2180" as="targetPoint" />
          </mxGeometry>
        </mxCell>
      </root>
    </mxGraphModel>
  </diagram>
</mxfile>
